<?xml version="1.0" encoding="utf-8"?>
<!-- Generator: Adobe Illustrator 23.1.1, SVG Export Plug-In . SVG Version: 6.00 Build 0)  -->
<svg version="1.1" id="Layer_1" xmlns="http://www.w3.org/2000/svg" xmlns:xlink="http://www.w3.org/1999/xlink" x="0px" y="0px"
	 viewBox="0 0 252.8 255" style="enable-background:new 0 0 252.8 255;" xml:space="preserve">
<style type="text/css">
	.st0{fill:#D5D5D5;}
	.st1{fill:#3B589F;}
	.st2{fill:#1AA4B1;}
</style>
<g>
	<g>
		<path class="st0" d="M185.1,248.2H68c-34.7,0-62.9-28.2-62.9-62.9V68.1C5.1,33.4,33.3,5.2,68,5.2h117.2
			c34.7,0,62.9,28.2,62.9,62.9v117.2C248,220,219.8,248.2,185.1,248.2z M68,53.8c-7.9,0-14.3,6.4-14.3,14.3v117.2
			c0,7.9,6.4,14.3,14.3,14.3h117.2c7.9,0,14.3-6.4,14.3-14.3V68.1c0-7.9-6.4-14.3-14.3-14.3H68z"/>
	</g>
	<g>
		<g>
			<path class="st1" d="M185.1,248.2H68c-34.7,0-62.9-28.2-62.9-62.9V68.1c0-13.4,10.9-24.3,24.3-24.3s24.3,10.9,24.3,24.3v117.2
				c0,7.9,6.4,14.3,14.3,14.3h117.2c7.9,0,14.3-6.4,14.3-14.3V68.1c0-13.4,10.9-24.3,24.3-24.3c13.4,0,24.3,10.9,24.3,24.3v117.2
				C248,220,219.8,248.2,185.1,248.2z"/>
		</g>
	</g>
	<g>
		<g>
			<path class="st2" d="M185.1,248.2H68c-34.7,0-62.9-28.2-62.9-62.9V68.1c0-13.4,10.9-24.3,24.3-24.3s24.3,10.9,24.3,24.3v117.2
				c0,7.9,6.4,14.3,14.3,14.3h117.2c13.4,0,24.3,10.9,24.3,24.3C209.4,237.3,198.6,248.2,185.1,248.2z"/>
		</g>
	</g>
</g>
</svg>
