<?xml version="1.0" encoding="utf-8"?>
<!-- Generator: Adobe Illustrator 23.1.1, SVG Export Plug-In . SVG Version: 6.00 Build 0)  -->
<svg version="1.1" id="Layer_1" xmlns="http://www.w3.org/2000/svg" xmlns:xlink="http://www.w3.org/1999/xlink" x="0px" y="0px"
	 viewBox="0 0 512 512" style="enable-background:new 0 0 512 512;" xml:space="preserve">
<style type="text/css">
	.st0{fill:#5E9CEA;}
	.st1{fill:#46CEAC;}
</style>
<g>
	<path class="st0" d="M382.5,29.2H129.8c-19.9,0-29.8,24-15.7,38l126.3,126.3c8.7,8.7,22.9,8.7,31.6,0L398.2,67.2
		C412.4,53.3,402.4,29.2,382.5,29.2z"/>
</g>
<g>
	<path class="st1" d="M281.1,280.8L121.8,440.1c-15.7,15.7-4.6,42.7,17.7,42.7H458c13.8,0,25-11.2,25-25V139.2
		c0-22.3-26.9-33.4-42.7-17.7L281.1,280.8z"/>
</g>
<g>
	<path class="st0" d="M29,129.6v253c0,19.9,24,29.9,38.2,15.9l126.6-126.6c8.7-8.7,8.7-22.9,0-31.6L67,113.7
		C53,99.7,29,109.6,29,129.6z"/>
</g>
</svg>
